<?xml version="1.0" standalone="no"?>
<!DOCTYPE svg PUBLIC "-//W3C//DTD SVG 20010904//EN"
 "http://www.w3.org/TR/2001/REC-SVG-20010904/DTD/svg10.dtd">
<svg version="1.0" xmlns="http://www.w3.org/2000/svg"
 width="1024.000000pt" height="1024.000000pt" viewBox="0 0 1024.000000 1024.000000"
 preserveAspectRatio="xMidYMid meet">
<metadata>
Created by potrace 1.14, written by Peter Selinger 2001-2017
</metadata>
<g transform="translate(0.000000,1024.000000) scale(0.100000,-0.100000)"
fill="#000000" stroke="none">
<path d="M4665 8526 c-177 -56 -306 -202 -337 -383 -12 -70 -11 -75 66 -455
175 -870 267 -1324 272 -1341 4 -13 -13 -6 -63 26 -96 63 -179 103 -286 139
-117 39 -290 50 -400 24 -185 -43 -385 -180 -551 -376 -39 -47 -80 -98 -90
-114 -10 -16 -61 -73 -113 -126 -107 -109 -144 -161 -173 -238 -24 -62 -26
-158 -5 -216 l14 -39 -51 -56 c-28 -31 -67 -89 -86 -129 -60 -127 -56 -279 13
-412 93 -180 149 -314 177 -425 17 -66 36 -131 43 -146 17 -33 67 -77 249
-224 262 -211 432 -364 509 -460 27 -33 128 -141 226 -240 98 -99 192 -201
210 -227 31 -47 32 -50 42 -215 5 -93 9 -279 8 -415 -2 -244 -1 -248 23 -295
44 -87 157 -140 246 -115 20 6 80 29 132 52 388 171 792 219 1136 135 142 -35
203 -58 330 -125 62 -33 131 -63 154 -66 57 -9 123 12 174 58 76 66 74 51 81
687 l6 563 46 117 c98 250 248 734 300 966 19 90 26 157 33 365 6 140 21 534
35 875 40 983 40 972 22 1040 -52 203 -145 333 -286 403 -70 34 -81 37 -165
37 -103 0 -157 -19 -232 -80 l-43 -36 -5 33 c-3 18 -12 166 -21 328 -9 162
-21 315 -26 340 -32 156 -149 291 -302 348 -165 62 -351 25 -474 -95 -60 -59
-121 -176 -130 -250 -3 -29 -9 -53 -12 -53 -4 0 -26 98 -49 218 -61 303 -60
300 -95 366 -57 106 -150 184 -272 226 -68 23 -215 27 -280 6z m216 -221 c93
-33 154 -109 169 -212 5 -32 126 -587 271 -1233 144 -646 264 -1187 266 -1201
5 -24 12 -28 86 -43 44 -9 82 -14 84 -12 2 1 -4 81 -12 177 -76 855 -156 1856
-152 1909 6 98 45 163 121 202 60 31 167 23 232 -17 62 -39 111 -116 118 -189
3 -28 26 -404 52 -836 74 -1262 81 -1377 87 -1387 6 -10 155 -39 161 -32 1 2
24 317 50 699 26 382 52 709 57 726 12 38 54 80 96 94 101 36 230 -89 269
-259 11 -47 9 -162 -16 -766 -16 -390 -34 -847 -40 -1015 -13 -349 -17 -372
-115 -715 -69 -239 -149 -478 -218 -651 -44 -109 -44 -109 -51 -273 -3 -91 -7
-166 -9 -167 -2 -2 -68 19 -147 45 -466 157 -882 198 -1250 125 -108 -22 -270
-78 -359 -124 -86 -45 -91 -46 -91 -25 0 34 -129 191 -292 355 -95 96 -199
207 -230 245 -90 112 -219 229 -564 510 l-160 130 -32 123 c-20 82 -50 162
-85 235 -137 282 -132 268 -131 332 0 69 24 123 76 171 55 52 96 69 168 68 82
-1 138 -26 210 -91 72 -66 121 -151 166 -288 50 -149 63 -173 134 -238 103
-96 284 -167 422 -167 74 0 96 15 140 95 76 139 108 303 89 450 -16 118 -43
200 -115 344 -94 191 -166 257 -343 315 l-53 18 -55 -32 c-65 -37 -150 -118
-220 -210 -65 -84 -134 -122 -224 -121 -78 0 -134 25 -188 83 -94 103 -81 156
83 330 60 63 138 152 174 198 116 148 247 255 385 314 64 28 79 31 175 30 119
0 212 -26 330 -91 153 -85 160 -92 304 -313 73 -113 146 -224 162 -247 l28
-43 73 0 c71 0 73 1 68 23 -3 12 -30 146 -61 297 -100 497 -352 1741 -388
1919 -20 95 -36 189 -36 209 0 105 74 200 180 233 42 12 105 10 151 -6z m-844
-2860 c52 -44 143 -218 174 -330 26 -95 23 -227 -6 -318 l-19 -59 -41 7 c-46
7 -137 50 -188 89 -31 24 -41 43 -73 139 -20 62 -56 150 -80 196 l-45 84 29
31 c16 17 44 51 62 76 55 75 103 120 125 120 12 0 40 -16 62 -35z m1459 -2365
c162 -13 273 -32 445 -75 110 -28 335 -101 432 -140 16 -7 17 -30 17 -292 0
-157 -3 -283 -7 -281 -5 2 -37 20 -73 40 -140 79 -326 139 -525 169 -355 52
-748 -6 -1120 -168 -55 -23 -100 -43 -101 -43 0 0 -1 124 -2 275 l0 275 63 45
c147 105 361 176 590 195 135 11 142 11 281 0z"/>
</g>
</svg>
